<svg xmlns="http://www.w3.org/2000/svg" viewBox="0 0 24 24" fill="none" stroke="#78978C" stroke-width="1.8" stroke-linecap="round" stroke-linejoin="round"><circle cx="12" cy="12" r="3"/><path d="M19.2 15a1.7 1.7 0 0 0 .3 1.9l.1.1-2.2 2.2-.1-.1a1.7 1.7 0 0 0-1.9-.3 1.7 1.7 0 0 0-1 1.5v.2h-3.1v-.2a1.7 1.7 0 0 0-1-1.5 1.7 1.7 0 0 0-1.9.3l-.1.1-2.2-2.2.1-.1A1.7 1.7 0 0 0 6.5 15 1.7 1.7 0 0 0 5 14H4.8v-3.1H5a1.7 1.7 0 0 0 1.5-1 1.7 1.7 0 0 0-.3-1.9l-.1-.1 2.2-2.2.1.1a1.7 1.7 0 0 0 1.9.3 1.7 1.7 0 0 0 1-1.5v-.2h3.1v.2a1.7 1.7 0 0 0 1 1.5 1.7 1.7 0 0 0 1.9-.3l.1-.1 2.2 2.2-.1.1a1.7 1.7 0 0 0-.3 1.9 1.7 1.7 0 0 0 1.5 1h.2V14h-.2a1.7 1.7 0 0 0-1.5 1z"/></svg>
